<svg id="Capa_1" data-name="Capa 1" xmlns="http://www.w3.org/2000/svg" viewBox="0 0 39.28 39.18"><defs><style>.cls-1{fill:#ccc;opacity:0.4;}</style></defs><title>6</title><path class="cls-1" d="M15.69,35.18v4l-1-.78a63.61,63.61,0,0,1-7.27-7.11C2.51,25.6,0,20.5,0,16.12v-.43a15.69,15.69,0,0,1,31.38,0v.43a10.65,10.65,0,0,1-.06,1.12l-3.07-2.8A12.63,12.63,0,0,0,3.06,15.69v.43C3.06,23.51,12.59,32.46,15.69,35.18ZM25.1,33h4.59V28.39H25.1ZM15.69,9.18a6.51,6.51,0,1,1-6.51,6.51A6.51,6.51,0,0,1,15.69,9.18Zm0,3.06a3.45,3.45,0,1,0,3.44,3.45A3.46,3.46,0,0,0,15.69,12.24ZM37.22,30.9l-.87-.78V35a4.15,4.15,0,0,1-4.15,4.15H22.51A4.15,4.15,0,0,1,18.36,35V30.12l-.86.78-2.06-2.26L27.36,17.77,39.28,28.64Zm-3.93-3.57-5.93-5.42-5.94,5.42V35a1.09,1.09,0,0,0,1.09,1.09H32.2A1.09,1.09,0,0,0,33.29,35Z"/></svg>