<svg id="Capa_1" data-name="Capa 1" xmlns="http://www.w3.org/2000/svg" viewBox="0 0 48.27 46.27"><defs><style>.cls-1{opacity:0.4;}.cls-2{fill:#ccc;}</style></defs><title>4</title><g class="cls-1"><path class="cls-2" d="M17.64,28.1a1.27,1.27,0,0,0-.06-.18.65.65,0,0,0-.09-.16.76.76,0,0,0-.11-.14,1,1,0,0,0-.85-.26l-.18.05-.16.09a1.58,1.58,0,0,0-.15.12.76.76,0,0,0-.11.14.65.65,0,0,0-.09.16,1.21,1.21,0,0,0-.05.18.55.55,0,0,0,0,.18.58.58,0,0,0,0,.19,1.21,1.21,0,0,0,.05.18.65.65,0,0,0,.09.16A.76.76,0,0,0,16,29l.15.12.16.09.18.05.18,0a1,1,0,0,0,.67-.28.76.76,0,0,0,.11-.14.65.65,0,0,0,.09-.16,1.27,1.27,0,0,0,.06-.18,1.15,1.15,0,0,0,0-.19A1.09,1.09,0,0,0,17.64,28.1Z"/><path class="cls-2" d="M47.32,44.38h-2V30.16a2.82,2.82,0,0,0-2.82-2.82H40.94V18a2.83,2.83,0,0,0-2.82-2.82h-2.9V12.48a3.76,3.76,0,0,0,1.77-1,3.82,3.82,0,0,0,.72-4.4L35.13,1.84a1,1,0,0,0-.85-.52.92.92,0,0,0-.84.52L30.85,7.08a3.82,3.82,0,0,0,.72,4.4,3.76,3.76,0,0,0,1.77,1v2.74H25.08V11.17a3.83,3.83,0,0,0,2.49-5.4L25,.53A.94.94,0,0,0,24.13,0a.92.92,0,0,0-.84.53L20.7,5.77a3.82,3.82,0,0,0,.73,4.4,3.76,3.76,0,0,0,1.76,1v4.05H14.93V12.49a3.77,3.77,0,0,0,1.76-1,3.84,3.84,0,0,0,.73-4.4L14.83,1.84a.95.95,0,0,0-1.69,0L10.55,7.08a3.84,3.84,0,0,0,.73,4.4,3.77,3.77,0,0,0,1.76,1v2.73H10.15A2.82,2.82,0,0,0,7.33,18v9.3H5.72A2.82,2.82,0,0,0,2.9,30.16V44.38h-2a.95.95,0,0,0,0,1.89H47.32a.95.95,0,1,0,0-1.89ZM32.91,10.15a1.94,1.94,0,0,1-.37-2.23l1.74-3.53L36,7.92a1.94,1.94,0,0,1-.37,2.23,1.66,1.66,0,0,1-.43.32,1.91,1.91,0,0,1-1.88,0A1.66,1.66,0,0,1,32.91,10.15ZM22.76,8.83a1.93,1.93,0,0,1-.37-2.23l1.74-3.53L25.87,6.6a1.93,1.93,0,0,1-.36,2.23,2.24,2.24,0,0,1-.43.33,2,2,0,0,1-1.89,0A2.24,2.24,0,0,1,22.76,8.83ZM12.61,10.15a2,2,0,0,1-.37-2.23L14,4.39l1.74,3.53a1.94,1.94,0,0,1-.37,2.23,1.85,1.85,0,0,1-.43.32,1.93,1.93,0,0,1-1.89,0A1.85,1.85,0,0,1,12.61,10.15Zm-2.46,7h28a.93.93,0,0,1,.93.93v3a4.54,4.54,0,0,1-1.39.19,4.4,4.4,0,0,1-2.86-1,6.6,6.6,0,0,0-7.81,0,4.7,4.7,0,0,1-5.72,0,6.25,6.25,0,0,0-3.9-1.28,6.28,6.28,0,0,0-3.91,1.28,4.36,4.36,0,0,1-2.86,1A4.63,4.63,0,0,1,9.21,21V18h0A.94.94,0,0,1,10.15,17.11ZM43.49,44.38H4.78V35.32a4.92,4.92,0,0,1,1.92.89,6.25,6.25,0,0,0,3.9,1.29,6.28,6.28,0,0,0,3.91-1.29,4.41,4.41,0,0,1,2.86-1,4.43,4.43,0,0,1,2.86,1,6.56,6.56,0,0,0,7.81,0,4.7,4.7,0,0,1,5.72,0,6.56,6.56,0,0,0,7.81,0,4.79,4.79,0,0,1,1.92-.89Zm0-11a6.4,6.4,0,0,0-3,1.23,4.7,4.7,0,0,1-5.72,0,6.6,6.6,0,0,0-7.81,0,4.7,4.7,0,0,1-5.72,0,6.25,6.25,0,0,0-3.9-1.28,6.28,6.28,0,0,0-3.91,1.28,4.41,4.41,0,0,1-2.86,1,4.45,4.45,0,0,1-2.86-1,6.36,6.36,0,0,0-3-1.23V30.16a.94.94,0,0,1,.94-.93H13a.95.95,0,0,0,0-1.89H9.21V23a7.63,7.63,0,0,0,1.39.13,6.22,6.22,0,0,0,3.91-1.29,4.41,4.41,0,0,1,2.86-1,4.43,4.43,0,0,1,2.86,1,6.56,6.56,0,0,0,7.81,0,4.7,4.7,0,0,1,5.72,0,6.19,6.19,0,0,0,3.9,1.29A7.55,7.55,0,0,0,39.05,23v4.39H20.47a.95.95,0,0,0,0,1.89H42.55a.94.94,0,0,1,.94.93v3.25Z"/><path class="cls-2" d="M9.19,42a1.21,1.21,0,0,0,0-.18.51.51,0,0,0-.09-.16.76.76,0,0,0-.11-.14.79.79,0,0,0-.15-.12.51.51,0,0,0-.16-.09l-.18-.05a1,1,0,0,0-.85.26.76.76,0,0,0-.11.14.51.51,0,0,0-.09.16,1.21,1.21,0,0,0-.05.18.55.55,0,0,0,0,.18.62.62,0,0,0,0,.19.84.84,0,0,0,.05.17.7.7,0,0,0,.09.17,1.34,1.34,0,0,0,.11.14,1,1,0,0,0,.67.28l.18,0,.18-.06L8.79,43l.15-.12a1.34,1.34,0,0,0,.11-.14.7.7,0,0,0,.09-.17.84.84,0,0,0,0-.17.62.62,0,0,0,0-.19A.55.55,0,0,0,9.19,42Z"/><path class="cls-2" d="M19.33,39.22a1.27,1.27,0,0,0-.06-.18l-.08-.16-.12-.14a.57.57,0,0,0-.15-.12l-.16-.09-.17-.05a.77.77,0,0,0-.37,0l-.18.05-.16.09a1.2,1.2,0,0,0-.26.26,1.29,1.29,0,0,0-.09.16,1.21,1.21,0,0,0-.05.18.87.87,0,0,0,0,.37.84.84,0,0,0,.05.17.91.91,0,0,0,.09.17.53.53,0,0,0,.12.14l.14.12.16.08.18.06.18,0,.19,0a.49.49,0,0,0,.17-.06l.16-.08.15-.12.12-.14a.89.89,0,0,0,.08-.17.85.85,0,0,0,.06-.17,1.15,1.15,0,0,0,0-.19A1.09,1.09,0,0,0,19.33,39.22Z"/><path class="cls-2" d="M30.23,42l-.06-.18a.51.51,0,0,0-.09-.16.76.76,0,0,0-.11-.14.57.57,0,0,0-.15-.12.51.51,0,0,0-.16-.09l-.17-.05a.77.77,0,0,0-.37,0l-.18.05a.51.51,0,0,0-.16.09.79.79,0,0,0-.15.12.76.76,0,0,0-.11.14.51.51,0,0,0-.09.16,1.21,1.21,0,0,0-.05.18.55.55,0,0,0,0,.18.62.62,0,0,0,0,.19.84.84,0,0,0,.05.17.7.7,0,0,0,.09.17.76.76,0,0,0,.11.14l.15.12.16.08.18.06.18,0a1,1,0,0,0,.67-.28.76.76,0,0,0,.11-.14.7.7,0,0,0,.09-.17l.06-.17a1.21,1.21,0,0,0,0-.19A1.09,1.09,0,0,0,30.23,42Z"/><path class="cls-2" d="M40.92,39.78a.84.84,0,0,0-.05-.17l-.09-.17a.53.53,0,0,0-.12-.14A.91.91,0,0,0,40,39a1,1,0,0,0-.67.28l-.12.14a.89.89,0,0,0-.08.17.49.49,0,0,0-.06.17,1.23,1.23,0,0,0,0,.19,1.1,1.1,0,0,0,0,.18.64.64,0,0,0,.06.18,1.19,1.19,0,0,0,.08.16l.12.14a.53.53,0,0,0,.14.12l.17.09.17,0,.19,0a.91.91,0,0,0,.66-.28.53.53,0,0,0,.12-.14l.09-.16a1.21,1.21,0,0,0,.05-.18,1.1,1.1,0,0,0,0-.18A1.23,1.23,0,0,0,40.92,39.78Z"/><path class="cls-2" d="M31.54,24.37a.84.84,0,0,0-.05-.17L31.4,24a.53.53,0,0,0-.12-.14l-.14-.12L31,23.69a1.27,1.27,0,0,0-.18-.06,1.15,1.15,0,0,0-.37,0,.85.85,0,0,0-.17.06l-.17.08-.14.12-.12.14a1.3,1.3,0,0,0-.08.17.49.49,0,0,0-.06.17,1.23,1.23,0,0,0,0,.19,1.1,1.1,0,0,0,0,.18.64.64,0,0,0,.06.18l.08.16.12.14a.53.53,0,0,0,.14.12.91.91,0,0,0,.17.09l.17.05.19,0,.18,0,.18-.05a1.29,1.29,0,0,0,.16-.09,1.2,1.2,0,0,0,.26-.26l.09-.16a1.21,1.21,0,0,0,.05-.18,1.1,1.1,0,0,0,0-.18A1.23,1.23,0,0,0,31.54,24.37Z"/><path class="cls-2" d="M19.23,23.09a1.21,1.21,0,0,0-.05-.18,1.29,1.29,0,0,0-.09-.16,1.2,1.2,0,0,0-.26-.26l-.16-.09-.18,0a.77.77,0,0,0-.37,0l-.17,0-.17.09a.75.75,0,0,0-.14.12l-.12.14a1.19,1.19,0,0,0-.08.16,1.27,1.27,0,0,0-.06.18,1.09,1.09,0,0,0,0,.18,1.15,1.15,0,0,0,0,.19.85.85,0,0,0,.06.17.89.89,0,0,0,.08.17l.12.14.14.12.17.08a.49.49,0,0,0,.17.06l.19,0,.18,0a.64.64,0,0,0,.18-.06.8.8,0,0,0,.16-.08l.14-.12a.53.53,0,0,0,.12-.14.91.91,0,0,0,.09-.17.84.84,0,0,0,.05-.17.87.87,0,0,0,0-.37Z"/></g></svg>