<svg id="Capa_1" data-name="Capa 1" xmlns="http://www.w3.org/2000/svg" viewBox="0 0 42.82 26.43"><defs><style>.cls-1{opacity:0.4;}.cls-2{fill:#ccc;}</style></defs><title>3</title><g class="cls-1"><path class="cls-2" d="M42.15,0H.67A.67.67,0,0,0,0,.67V25.76a.67.67,0,0,0,.67.67H42.15a.67.67,0,0,0,.67-.67V.67A.67.67,0,0,0,42.15,0Zm-.67,25.08H1.34V1.34H41.48V25.08Z"/><path class="cls-2" d="M10.89,13.21A4.1,4.1,0,1,0,6.8,9.11,4.1,4.1,0,0,0,10.89,13.21Zm0-6.85A2.75,2.75,0,1,1,8.14,9.11,2.75,2.75,0,0,1,10.89,6.36Z"/><path class="cls-2" d="M5.86,21.42a.67.67,0,0,0,.67-.67v-1.9a2.64,2.64,0,0,1,2.64-2.63h3.47a2.64,2.64,0,0,1,2.64,2.63v1.9a.67.67,0,0,0,1.34,0v-1.9a4,4,0,0,0-4-4H9.17a4,4,0,0,0-4,4v1.9A.67.67,0,0,0,5.86,21.42Z"/><path class="cls-2" d="M18.55,6.36H37A.67.67,0,1,0,37,5H18.55a.67.67,0,1,0,0,1.34Z"/><path class="cls-2" d="M37,20.08H23.63a.67.67,0,0,0,0,1.34H37a.67.67,0,0,0,0-1.34Z"/><path class="cls-2" d="M37,12.74H28.67a.67.67,0,0,0,0,1.34H37a.67.67,0,1,0,0-1.34Z"/><path class="cls-2" d="M37,16.41H28.67a.67.67,0,0,0,0,1.34H37a.67.67,0,0,0,0-1.34Z"/></g></svg>