<svg id="Capa_1" data-name="Capa 1" xmlns="http://www.w3.org/2000/svg" viewBox="0 0 55.95 45.67"><defs><style>.cls-1{opacity:0.4;}.cls-2{fill:#ccc;}</style></defs><title>10</title><g class="cls-1"><g id="Layer_5" data-name="Layer 5"><path class="cls-2" d="M31.57,33.65a7.28,7.28,0,0,1-7.19,0l-16.25-10s-1.47-.9-1.47,1.14v10C6.66,40,16.2,45.67,28,45.67S49.29,40,49.29,34.77V24.25c0-1.63-1-.83-1-.83Z"/><path class="cls-2" d="M55,15.75A1.51,1.51,0,0,0,55,13L30.25.57a4.83,4.83,0,0,0-4.55,0L.94,13a1.51,1.51,0,0,0,0,2.79L25.7,30.94a4.83,4.83,0,0,0,4.55,0"/><path class="cls-2" d="M54,38.26V21.49s0-.8-.46-.54a14.29,14.29,0,0,0-1.63,1A1.41,1.41,0,0,0,51.61,23V38.26a.44.44,0,0,1-.28.37,2.9,2.9,0,1,0,4.37,2.5,2.89,2.89,0,0,0-1.44-2.5A.43.43,0,0,1,54,38.26Z"/></g></g></svg>