<svg id="Capa_1" data-name="Capa 1" xmlns="http://www.w3.org/2000/svg" viewBox="0 0 50.7 50.7"><defs><style>.cls-1{opacity:0.4;}.cls-2{fill:#ccc;}</style></defs><title>11</title><g class="cls-1"><path class="cls-2" d="M47.73,27.09V22.38a1.49,1.49,0,0,0-1.49-1.49,44.8,44.8,0,0,0-8.63.79A13.44,13.44,0,0,0,32,18.45a10.4,10.4,0,1,0-13.38,0,13.44,13.44,0,0,0-5.57,3.23,44.73,44.73,0,0,0-8.63-.79A1.49,1.49,0,0,0,3,22.38v4.71a4.46,4.46,0,0,0-3,4.2v3a4.45,4.45,0,0,0,3,4.2v4.71a1.49,1.49,0,0,0,1.49,1.49,34.59,34.59,0,0,1,20.07,5.79,1.48,1.48,0,0,0,1.64,0,34.59,34.59,0,0,1,20.07-5.79,1.49,1.49,0,0,0,1.49-1.49V38.46a4.45,4.45,0,0,0,3-4.2v-3A4.46,4.46,0,0,0,47.73,27.09ZM17.92,10.5a7.43,7.43,0,1,1,7.43,7.42A7.49,7.49,0,0,1,17.92,10.5ZM4.46,35.75A1.49,1.49,0,0,1,3,34.26v-3a1.49,1.49,0,0,1,3,0v3A1.49,1.49,0,0,1,4.46,35.75Zm19.4,10.8A37.2,37.2,0,0,0,5.94,41.71V38.46a4.45,4.45,0,0,0,3-4.2v-3a4.46,4.46,0,0,0-3-4.2v-3.2a33.51,33.51,0,0,1,17.92,5.24Zm1.49-20a35.52,35.52,0,0,0-8.64-4,10.38,10.38,0,0,1,5.67-1.69h5.94A10.38,10.38,0,0,1,34,22.58,35.52,35.52,0,0,0,25.35,26.55ZM44.76,41.71a37.2,37.2,0,0,0-17.92,4.84V29.13a33.51,33.51,0,0,1,17.92-5.24v3.2a4.46,4.46,0,0,0-3,4.2v3a4.45,4.45,0,0,0,3,4.2Zm3-7.45a1.49,1.49,0,1,1-3,0v-3a1.49,1.49,0,0,1,3,0Z"/></g></svg>