<svg id="Capa_1" data-name="Capa 1" xmlns="http://www.w3.org/2000/svg" viewBox="0 0 42.24 48.06"><defs><style>.cls-1{opacity:0.4;}.cls-2{fill:#ccc;}</style></defs><title>8</title><g class="cls-1"><path class="cls-2" d="M21.12,5.63a9.85,9.85,0,0,0-5.3,18.16,10.06,10.06,0,0,0,9.8.54,1.42,1.42,0,0,0,.69-1.87,1.4,1.4,0,0,0-1.87-.69,7.29,7.29,0,0,1-7.11-.35,7,7,0,1,1,10.83-5.93,1.41,1.41,0,0,1-2.82,0v0a4.22,4.22,0,1,0-1.4,3.14,4.18,4.18,0,0,0,2.81,1.08A4.23,4.23,0,0,0,31,15.49,9.87,9.87,0,0,0,21.12,5.63Zm1.39,10.08a1.4,1.4,0,1,1,0-.38A1.21,1.21,0,0,0,22.51,15.71Z"/><path class="cls-2" d="M42.24,18.49a1.43,1.43,0,0,0-.41-1l-5.22-5.22V1.41A1.41,1.41,0,0,0,35.2,0H7A1.41,1.41,0,0,0,5.63,1.41V12.28L.41,17.5h0a1.38,1.38,0,0,0-.4,1H0V43.84a4.23,4.23,0,0,0,4.22,4.22H38a4.23,4.23,0,0,0,4.22-4.22V18.49Zm-5.63-2.23,2.23,2.23-2.23,2.23ZM8.45,12.86h0v-10H33.79v10h0V23.54l-7.62,7.62H16.07L8.45,23.54Zm-2.82,3.4v4.46L3.4,18.49Zm-2.81,27V21.89L13.5,32.57Zm2,2L16.07,34h10.1L37.43,45.24Zm34.61-2L28.74,32.57,39.42,21.89Z"/></g></svg>