<svg id="Capa_1" data-name="Capa 1" xmlns="http://www.w3.org/2000/svg" viewBox="0 0 37.5 75"><defs><style>.cls-1{opacity:0.4;}.cls-2{fill:#ccc;}.cls-3{fill:#fff;}</style></defs><title>9</title><g class="cls-1"><path class="cls-2" d="M35.94,14.06H32c-.17-.46-.36-.92-.57-1.36l2.79-2.79a1.56,1.56,0,0,0,0-2.21L29.8,3.28a1.56,1.56,0,0,0-2.21,0L24.8,6.07c-.44-.21-.9-.4-1.36-.57V1.56A1.56,1.56,0,0,0,21.87,0H15.62a1.56,1.56,0,0,0-1.56,1.56V5.5c-.46.17-.92.36-1.36.57L9.91,3.28a1.56,1.56,0,0,0-2.21,0L3.28,7.7a1.56,1.56,0,0,0,0,2.21L6.07,12.7c-.21.44-.4.9-.57,1.36H1.56A1.56,1.56,0,0,0,0,15.63v6.25a1.56,1.56,0,0,0,1.56,1.56H5.5c.17.46.36.92.57,1.36L3.28,27.59a1.56,1.56,0,0,0,0,2.21L7.7,34.22a1.56,1.56,0,0,0,2.21,0l2.79-2.79c.44.21.9.4,1.36.57v3.94a1.56,1.56,0,0,0,1.57,1.56h6.25a1.56,1.56,0,0,0,1.56-1.56V32c.46-.17.92-.36,1.36-.57l2.79,2.79a1.56,1.56,0,0,0,2.21,0l4.42-4.42a1.56,1.56,0,0,0,0-2.21L31.43,24.8c.21-.44.4-.9.57-1.36h3.94a1.56,1.56,0,0,0,1.56-1.57V15.62A1.56,1.56,0,0,0,35.94,14.06Zm-1.56,6.25H30.84a1.56,1.56,0,0,0-1.51,1.17,11.4,11.4,0,0,1-1.16,2.82,1.55,1.55,0,0,0,.24,1.9l2.5,2.5L28.7,30.9l-2.5-2.5a1.57,1.57,0,0,0-1.9-.24,11.06,11.06,0,0,1-2.82,1.17,1.56,1.56,0,0,0-1.17,1.51v3.54H17.19V30.85A1.56,1.56,0,0,0,16,29.33a10.69,10.69,0,0,1-2.82-1.16,1.56,1.56,0,0,0-1.9.24l-2.5,2.5L6.6,28.7l2.5-2.5a1.57,1.57,0,0,0,.24-1.9,11.14,11.14,0,0,1-1.17-2.81,1.56,1.56,0,0,0-1.51-1.17H3.13V17.19H6.66A1.55,1.55,0,0,0,8.17,16a10.85,10.85,0,0,1,1.17-2.81,1.57,1.57,0,0,0-.24-1.9L6.6,8.81,8.8,6.6l2.5,2.5a1.57,1.57,0,0,0,1.9.24A11.06,11.06,0,0,1,16,8.17a1.56,1.56,0,0,0,1.17-1.51V3.12h3.12V6.66a1.56,1.56,0,0,0,1.17,1.51,10.85,10.85,0,0,1,2.81,1.17,1.57,1.57,0,0,0,1.9-.24l2.5-2.5L30.9,8.8l-2.5,2.5a1.57,1.57,0,0,0-.24,1.9A11.06,11.06,0,0,1,29.33,16a1.56,1.56,0,0,0,1.51,1.17h3.54Z"/><path class="cls-2" d="M18.75,12.5A6.25,6.25,0,1,0,25,18.75,6.25,6.25,0,0,0,18.75,12.5Zm0,9.37a3.12,3.12,0,1,1,3.12-3.12A3.11,3.11,0,0,1,18.75,21.87Z"/><path class="cls-2" d="M29,38.68c-1.07-4.3-3.86-2.23-3.08.6v2.86c0,5.2-2.81,9.42-6.25,9.42s-6.25-4.22-6.25-9.42V39.06H10.3v3.08c0,7,4.12,12.55,9.38,12.55s9.37-5.51,9.37-12.55V39.06A1.64,1.64,0,0,0,29,38.68Z"/><rect class="cls-3" x="24.02" y="34.28" width="7.32" height="4.54"/><path class="cls-2" d="M27.49,54.69a2.41,2.41,0,0,1-.38,0,2.94,2.94,0,0,1-2.74-3.13H21.24v.36a6.08,6.08,0,0,0,6.25,5.89,4.69,4.69,0,0,1,4.69,4.69V75H35.3V62.5A7.81,7.81,0,0,0,27.49,54.69Z"/><path class="cls-2" d="M18.12,51.56H15a2.41,2.41,0,0,1,0,.38,2.94,2.94,0,0,1-3.12,2.75A7.82,7.82,0,0,0,4.05,62.5V75H7.18V62.5a4.69,4.69,0,0,1,4.69-4.69h.35A6.08,6.08,0,0,0,18.12,51.56Z"/><rect class="cls-2" x="10.3" y="64.06" width="3.12" height="10.94"/><rect class="cls-2" x="25.93" y="64.06" width="3.12" height="10.94"/></g></svg>