<svg id="Capa_1" data-name="Capa 1" xmlns="http://www.w3.org/2000/svg" viewBox="0 0 58.99 58.99"><defs><style>.cls-1{opacity:0.4;}.cls-2{fill:#ccc;}</style></defs><title>2</title><g class="cls-1"><path class="cls-2" d="M29.71,9a16.71,16.71,0,0,0-16.85,16.2,16.49,16.49,0,0,0,3.06,10.07,18.48,18.48,0,0,1,3.33,10.79v4.44a.83.83,0,0,0,.29.62l2.93,2.48v3A2.36,2.36,0,0,0,24.83,59h9.33a2.36,2.36,0,0,0,2.36-2.36v-3l2.94-2.48a.82.82,0,0,0,.28-.62V46.07a19.1,19.1,0,0,1,3.44-10.94A16.65,16.65,0,0,0,29.71,9Zm5.71,43.42H23.58l-2.33-2h16.5Zm2.71-3.58H20.87v-2H38.13Zm-3.22,7.79a.75.75,0,0,1-.75.74H24.83a.74.74,0,0,1-.74-.74V54H34.91Zm7-22.43a20.77,20.77,0,0,0-3.72,11H20.85a20,20,0,0,0-3.62-10.92A15,15,0,0,1,29.5,10.63h.19A15,15,0,0,1,41.86,34.21Z"/><path class="cls-2" d="M38.37,25.66a9,9,0,0,0-1.07-2.58L38.36,22a.8.8,0,0,0,0-1.14h0L36.44,19a.81.81,0,0,0-1.14,0h0l-1,1.06a8.94,8.94,0,0,0-2.59-1.08V17.46a.8.8,0,0,0-.8-.81H28.14a.81.81,0,0,0-.81.81v1.48A9,9,0,0,0,24.75,20L23.69,19a.81.81,0,0,0-1.14,0h0l-1.92,1.92a.81.81,0,0,0,0,1.14h0l1.06,1.06a9.24,9.24,0,0,0-1.06,2.58h-1.5a.81.81,0,0,0-.81.81v2.71a.81.81,0,0,0,.81.81h1.51a8.92,8.92,0,0,0,1.07,2.57l-1.08,1.07a.81.81,0,0,0,0,1.14h0l1.92,1.92a.83.83,0,0,0,1.14,0l1.09-1.08a9.06,9.06,0,0,0,2.55,1.06V38.2a.8.8,0,0,0,.81.8h2.71a.8.8,0,0,0,.81-.8V36.67a9.24,9.24,0,0,0,2.56-1.06l1.08,1.08a.8.8,0,0,0,1.14,0h0l1.92-1.92a.81.81,0,0,0,0-1.14h0l-1.07-1.07A9.51,9.51,0,0,0,38.36,30h1.51a.8.8,0,0,0,.8-.81V26.47a.8.8,0,0,0-.8-.81h-1.5Zm.69,2.72H37.7a.81.81,0,0,0-.8.67,7.57,7.57,0,0,1-1.31,3.14.81.81,0,0,0,.09,1l1,1-.78.78-1-1a.8.8,0,0,0-1-.08,7.67,7.67,0,0,1-3.14,1.29.81.81,0,0,0-.67.8v1.38H28.94V36a.8.8,0,0,0-.67-.8,7.44,7.44,0,0,1-3.13-1.29.8.8,0,0,0-1,.08l-1,1-.78-.78,1-1a.8.8,0,0,0,.08-1,7.46,7.46,0,0,1-1.31-3.14.81.81,0,0,0-.79-.67H19.93v-1.1h1.36a.8.8,0,0,0,.79-.68,7.54,7.54,0,0,1,1.3-3.15.8.8,0,0,0-.08-1l-.95-.95.77-.78.95.95a.8.8,0,0,0,1,.08,7.6,7.6,0,0,1,3.16-1.31.8.8,0,0,0,.67-.8V18.26h1.11V19.6a.8.8,0,0,0,.68.79,7.45,7.45,0,0,1,3.15,1.32.81.81,0,0,0,1-.09l.95-.94.78.78-.95.95a.8.8,0,0,0-.09,1,7.36,7.36,0,0,1,1.3,3.15.81.81,0,0,0,.8.68h1.35Z"/><path class="cls-2" d="M29.5,22.13a5.67,5.67,0,1,0,5.67,5.67A5.67,5.67,0,0,0,29.5,22.13Zm0,9.73a4.06,4.06,0,1,1,4-4.05,4.05,4.05,0,0,1-4,4.05Z"/><path class="cls-2" d="M29.5,6.26a.8.8,0,0,0,.8-.81V.81a.81.81,0,1,0-1.61,0V5.45A.81.81,0,0,0,29.5,6.26Z"/><path class="cls-2" d="M49.21,8.64l-3.28,3.29a.8.8,0,0,0,0,1.14.81.81,0,0,0,1.14,0l3.29-3.29a.81.81,0,0,0-1.15-1.14Z"/><path class="cls-2" d="M58.19,28.69H53.54a.81.81,0,1,0,0,1.61h4.65a.81.81,0,0,0,0-1.61Z"/><path class="cls-2" d="M5.45,28.69H.81a.81.81,0,1,0,0,1.61H5.45a.81.81,0,1,0,0-1.61Z"/><path class="cls-2" d="M13.07,11.93,9.78,8.64A.81.81,0,0,0,8.64,9.78l3.29,3.29a.81.81,0,0,0,1.14-1.14Z"/></g></svg>