<svg id="Capa_1" data-name="Capa 1" xmlns="http://www.w3.org/2000/svg" viewBox="0 0 36.71 36.72"><defs><style>.cls-1{opacity:0.39;}.cls-2{fill:#ccc;}</style></defs><title>7</title><g class="cls-1"><path class="cls-2" d="M27.91,24.29a2.57,2.57,0,0,0-3.89,0c-.9.9-1.81,1.8-2.71,2.72a.55.55,0,0,1-.75.14c-.59-.33-1.21-.59-1.78-.94A28.22,28.22,0,0,1,12,20a15.86,15.86,0,0,1-2.43-3.9.56.56,0,0,1,.13-.72c.91-.88,1.8-1.78,2.69-2.68a2.58,2.58,0,0,0,0-4C11.65,8,10.94,7.32,10.23,6.6L8,4.4a2.59,2.59,0,0,0-3.89,0c-.91.9-1.79,1.82-2.72,2.71a4.4,4.4,0,0,0-1.39,3,12.7,12.7,0,0,0,1,5.45,33.29,33.29,0,0,0,5.88,9.78,36.24,36.24,0,0,0,12,9.42,17.29,17.29,0,0,0,6.67,1.94,4.88,4.88,0,0,0,4.19-1.59c.78-.87,1.66-1.67,2.49-2.5a2.6,2.6,0,0,0,0-4Q30.1,26.46,27.91,24.29Z"/><path class="cls-2" d="M26.45,18.2l2.82-.48A12.67,12.67,0,0,0,18.57,7.33l-.4,2.84a9.77,9.77,0,0,1,8.28,8Z"/><path class="cls-2" d="M30.86,5.94A20.76,20.76,0,0,0,18.94,0l-.39,2.83A18.15,18.15,0,0,1,33.9,17.71l2.81-.48A20.92,20.92,0,0,0,30.86,5.94Z"/></g></svg>