<svg id="Capa_1" data-name="Capa 1" xmlns="http://www.w3.org/2000/svg" viewBox="0 0 56.45 52.8"><defs><style>.cls-1{opacity:0.4;}.cls-2{fill:#e2e2e2;}.cls-3{fill:#ccc;}</style></defs><title>1</title><g class="cls-1"><path class="cls-2" d="M40.6,25.27c-.08.16-.08.23-.16.39a13.92,13.92,0,0,1-2.94,3.79,14.19,14.19,0,0,1-9.35,3.63,14,14,0,0,1-10.29-4.56,14.89,14.89,0,0,1-2-2.86c-.08-.08-.08-.23-.15-.31A18.89,18.89,0,0,0,0,44v6.5A2.28,2.28,0,0,0,2.32,52.8H54.13a2.28,2.28,0,0,0,2.32-2.32V44A19,19,0,0,0,40.6,25.27Z"/><path class="cls-3" d="M17.86,28.69a14,14,0,0,0,10.29,4.56,14.19,14.19,0,0,0,9.35-3.63,13.92,13.92,0,0,0,2.94-3.79.61.61,0,0,0,.16-.39,14.3,14.3,0,0,0,1.47-6.11V11.6A11.59,11.59,0,0,0,30.47,0H25.83a11.58,11.58,0,0,0-11.6,11.6v7.73a14.54,14.54,0,0,0,1.47,6.19c.07.07.07.23.15.31A14.89,14.89,0,0,0,17.86,28.69Z"/></g></svg>